<?xml version="1.0" encoding="iso-8859-1"?>
<!-- Generator: Adobe Illustrator 19.0.0, SVG Export Plug-In . SVG Version: 6.00 Build 0)  -->
<svg xmlns="http://www.w3.org/2000/svg" xmlns:xlink="http://www.w3.org/1999/xlink" version="1.1" id="Capa_1" x="0px" y="0px" viewBox="0 0 492.542 492.542" style="enable-background:new 0 0 492.542 492.542;" xml:space="preserve" width="512px" height="512px">
<g>
	<g>
		<path d="M454.811,144.972l-2.6-1.2l-1.9-0.8l-3.7-1.5l-7.4-3.1l-14.9-6.1l-11.9-4.8l-1.3-28l-1-16l-0.2-2l-0.1-1l-0.2-2    c-0.4-2.4-0.9-5.2-1.6-7.2c-1.2-4.2-3.2-8.5-5.8-12.4c-2.7-3.9-6.1-7.5-10-10.4c-4-2.8-8.4-5-13-6.3c-9.2-2.6-18.1-1.9-26,0.5    c-10.4,2.5-20.8,4.9-31.1,7.4l-11.3,2.8l-1.1-1.4l-7.8-10l-15.8-19.8l-2-2.5l-1.7-2l-1.1-1.2c-0.4-0.5-0.6-0.7-1.2-1.3l-2.2-2.1    c-0.7-0.7-1.5-1.4-2.2-2l-2.1-1.6c-5.7-4.2-12.9-7.6-20.8-8.6c-7.9-1.1-16.2,0.3-23.1,3.4c-6.9,3.1-12.5,7.7-16.8,12.6l-1.6,1.9    l-1.2,1.5l-1.9,2.5l-3.8,5l-7.6,10.1l-13.3,17.9l-5.6-1.2c-18.8-3.9-35.4-3.6-36.4,5.5c-1,8.3,10.5,17.7,29.2,23.8l6.3,2.1l3.2,1    l1.6,0.5c0.9,0.3,1.8,0.5,3,0.7c2.2,0.4,5.4,0.7,9-0.2c3.6-0.8,6.8-2.8,8.8-4.6c1-0.8,1.9-1.7,2.8-2.8l1.2-1.4l2.2-2.5l17.5-20    l8.7-10.1l4.1-5.1c0.2-0.2,0.8-0.8,1.2-1.2s0.9-0.7,1.3-1.1c1.7-1.3,3.2-1.8,4.4-2c1.2-0.2,2.2-0.2,3.6,0.4    c0.5,0.2,1.1,0.5,1.8,0.9c0.3,0.3,0.6,0.5,0.9,0.7s0.4,0.3,0.6,0.5c0.1-0.1,2.7,2.9,2.6,2.7l3.4,4.1l13.7,16.4l13.8,16.3l1.9,2.2    c1.1,1.3,2.5,2.8,4.9,4.5c2.3,1.7,6.1,3.3,9.5,3.7c3.5,0.4,5.7,0,8.1-0.5c1.7-0.4,2.3-0.7,3.2-0.9l2.6-0.8l5.1-1.5l40.5-12.2    c8.5-2.3,13.8,0.6,15.8,8.2c0.5-0.4,0.9-0.9,1.3-1.5c-0.4,0.6-0.8,1.2-1.3,1.5c0,0,0,3.6-0.1,3.5l-0.2,4.8l-0.4,9.6l-0.6,19.3    l-0.1,9.6v4.8v2.4v1.4c0,0.9,0.1,1.8,0.2,2.9c0.3,2.1,0.9,5,2.6,8c1.6,3.1,4.2,5.9,6.6,7.7c1.2,0.9,2.3,1.6,3.4,2.2    c0.5,0.3,1.2,0.6,1.8,0.9l0.9,0.4l2.6,1.1l8.9,3.8c11.9,5,23.8,9.9,35.8,14.6c3.4,1.4,5.1,3.1,5.6,3.9c0.2,0.8,0.5,0.8,0,2.8    c0,0.4-0.4,1.2-0.5,1.5c-0.1,0.1-0.1,0.3-0.1,0.4c0.1,0-0.2,0.5-0.4,0.8l-0.6,1l-0.6,1l-0.1,0.2l-1.3,2l-2.6,4.1l-10.5,16.3    l-10.5,16.3l-1.3,2l-0.7,1c-0.2,0.4-0.8,1.3-1.3,2.1c-1,1.8-2.2,4.2-3,7.6c-0.8,3.4-0.8,7.9,0.1,11.3c0.4,1.7,0.9,3.2,1.5,4.4    c0.5,1.2,1.1,2.2,1.8,3.4l1.7,2.6l2.7,4l21.3,32.5c1.7,2.6,3.9,6,4.2,6.6c0.6,1.2,0.9,2.2,1,3c0,1.5-0.2,1.7-0.9,2.5    c-0.4,0.2-0.1,1.4-0.4,2.9c-0.1,0.9,0.1,1.4,0.1,2.2c0,0.2,0.1,0.4,0,0.6c-0.1,0.3-0.3,0.5-0.4,0.7c-0.3,0.5-0.5,0.9-0.6,1.3    c-1.1,3.1,0.2,5.1,2.8,6.1c0.7,0.3,1.4,0.5,2.2,0.6c0.6,0.2,1.3,0.3,2.1,0.4c1.6,0.1,3.6-0.2,5.6-1c3.3-1.3,6.5-3.5,9-6.9    c2.5-3.3,4.1-7.8,4.4-12.5s-0.6-9.7-2.4-14.3c-0.8-2-1.7-4.1-2.6-6.1c-0.9-1.9-1.7-3.9-2.6-5.8c-3.5-7.7-7.4-15.5-11.6-23.2    c-1.7-3.1-3.4-6.2-5.2-9.3l18-25.6l9.2-13.1l2.6-4.1c1-1.9,2.1-4,2.9-5.9c1.5-3.7,2.7-7.7,3.1-12.2c1-8.7-1.4-18.9-6.8-26.3    C468.811,152.972,461.711,148.072,454.811,144.972z M189.911,56.472l-1.3-0.3C189.711,56.272,190.111,56.472,189.911,56.472z     M303.111,54.672l-0.4,0.1c-0.2,0-0.3,0.1,0,0s0.5-0.1,0.7-0.2C303.111,54.672,302.911,54.672,303.111,54.672z M405.511,124.872    l-0.2-0.1h-0.1h-0.1C405.011,124.672,405.911,124.972,405.511,124.872l-0.5-0.2c0,0,0.4,0.2,0.7,0.3L405.511,124.872z     M443.111,244.072c0.1,0.1-0.2-0.4-0.3-0.6c0-0.1,0.2,0.2,0.2,0.3c0.1,0.1,0.2,0.4,0.4,0.8L443.111,244.072z" fill="#383838"/>
		<path d="M210.111,303.472c5.4,6.7,15.1,7.7,21.8,2.3l2.9-2.3c11.8-9.5,23-19.6,32.3-31.7c2.5-1.9,5-3.8,7.3-5.8    c15.1-12.7,29.4-26.3,40.3-43c3.1-4.8,3.1-11.3-3.6-17.4c-6.1-5.6-13.2-7.1-17.9-3.7c-8.5,6-17.1,12-24.3,19.4    c-11.5,12-21.7,25.1-32.5,37.7c-4.1,1.8-8,4-11.7,6.3c-9.7-9.5-19.8-18.7-28.6-29c-0.9-1-4.8,0-7,1.2c-4.4,2.5-6.1,6.7-6.5,10.7    c-1.4,13.2,2.6,23.6,9.1,31.8C197.811,287.672,203.811,295.672,210.111,303.472z" fill="#383838"/>
		<path d="M34.611,350.072c1.3,0.7,2.6,1.3,4,1.9l1.9,0.8l1.2,0.5l4.9,2c11.7,4.7,23.5,9.2,35.2,13.6l0.1,1l2,21l0.9,10l0.7,10.9    c0.8,11.5,6.2,22.8,15.2,30.5c5.1,4.4,11.3,7.1,17,8c5.7,1,10.7,0,14.3-1.3c3.6-1.5,6-3.5,7.1-5.6c1.2-2.1,1.2-4.1,0.2-6.2    c-1.8-3.8-5.8-6.3-9.4-8.9c-3.7-2.6-6.5-5.1-8.9-8.2c-1.1-1.4-1.9-3.1-2.4-4.9c-0.1-0.4-0.3-0.9-0.3-1.4c-0.1-0.5-0.2-1-0.1-1.1    c0-0.1,0-0.2,0-0.3v-0.2v-0.7v-1.4v-0.7v-0.3l0,0l0,0c0-0.2,0,1.5,0,0.8v-0.1v-0.2c0.5-8,0.5-15.8,0.4-23.4l-0.7-22.2l-0.2-5.8    c-0.1-1.9-0.4-4.4-1.7-7.8c-1.2-3.4-4.2-7.2-7-9.1c-1.4-1.1-2.6-1.8-3.7-2.3c-0.6-0.3-1.3-0.6-1.9-0.9l-0.8-0.3l-2.8-1.1l-5.2-2    l-33.7-12.2l-8.2-2.9c-1.4-0.5-2.6-1.1-3.6-1.8c-1.9-1.5-3.2-3.1-3.6-5.2c-0.2-1-0.3-2.2-0.1-3.4c0.1-0.5,0.3-1.5,0.4-1.7v-0.3    c0-0.1,0-0.1,0.2-0.6l1-2l8.8-14.6l18.4-31c1.3-1.8,3.3-4.8,3.9-9.7c0.3-2.4,0-4.9-0.5-6.8c-0.6-2.1-1.1-3.4-1.9-5l-4-7.8    c-2.5-4.8-5-9.6-7.5-14.3l-7.8-14.2l-4-7l-2-3.5l-0.8-1.8c-0.8-2.3-0.8-3.9-0.4-4.6c0.3-0.8,0.6-1.2,1.7-2.1    c0.2-0.2,0.6-0.4,1-0.7c0.5-0.2-0.1,0,0.7-0.4l1.9-0.8h0.1l0.8-0.3l3.8-1.4l15.2-5.8l15.2-5.9l7.6-3l3.8-1.5    c1.4-0.7,1.7-0.4,6-2.6c1.9-1,4.3-2.6,6.6-5.1c2.4-2.4,4.3-5.7,5.2-8.5c1-2.9,1.3-4.8,1.6-7l0.1-1.9v-1l0.3-8.1l0.7-16.3l0.8-16.3    l0.4-8.1l0.1-2c0-0.1,0.1-0.6,0.1-0.8c0-0.7,0.2-1.2,0.3-1.8c0.2-1,0.5-1.7,0.8-1.9c0.2-0.4,0.3-0.3,0.4-0.3    c0-0.1,0.4-0.1,0.9-0.3c0.6-0.1,1.6-0.3,2.9-0.2c0.8,0,2.5-0.8,3.6-1.8c0.9-1.2,3.7-2.1,4.8-3.1c2.3-2,2.5-4.3,1.3-6.6    c-0.6-1.1-1.7-2.4-2.7-3.5c-1.1-1-2.5-2.2-4.2-3c-5.5-2.8-12.8-4.6-20.6-1.5c-3.8,1.5-7.5,4.4-10.2,8c-2.8,3.6-4.6,7.8-5.7,12.1    l-0.4,1.6c-0.1,0.3-0.1,0.4-0.2,1l-0.1,0.7l-0.6,2.6c-0.4,1.8-0.7,3.5-1.1,5.3c-0.7,3.6-1.3,7.2-1.9,10.8    c-1.1,7.3-2,14.7-2.7,22.1l-0.5,5.4l-3.5,1.2l-25.6,8.6l-12.8,4.3l-3.2,1.1l-0.8,0.3l-1.7,0.7l-1.6,0.6l-0.8,0.3l-1.3,0.7    l-2.7,1.4c-1.8,1-3.1,2-4.6,3c-5.9,4.3-11,10.7-13.9,18.3c-3,7.6-3.3,16-1.7,23.3c0.7,3.7,2,7.1,3.5,10.3c1.4,3.1,3.6,6.5,4.5,8    l7.2,11.5l14.6,22.8l1,1.4l-0.9,1.4c-4.7,7.7-9.4,15.4-14,23.3l-7.8,11l-1.9,2.7l-2.4,4c-1,1.9-2,4.1-2.7,5.9    c-0.6,1.8-1.3,3.6-1.6,5.5c-1.4,6-1.5,12.6-0.1,18.9s4.4,12.4,8.4,17.3C24.411,343.372,29.311,347.372,34.611,350.072z     M86.311,135.772c0-0.1,0-0.4,0.1-0.7v0.1l-0.1,0.8C86.311,136.472,86.311,135.772,86.311,135.772z M47.511,254.372    C47.611,254.572,47.511,254.472,47.511,254.372L47.511,254.372z M47.211,242.172l0.2-0.2    C47.311,242.072,47.511,241.672,47.211,242.172L47.211,242.172C47.211,242.272,47.211,242.172,47.211,242.172z" fill="#383838"/>
		<path d="M421.011,329.572c-5.7,1.7-11.5,3.5-17.2,5.2l-8.6,2.7l-1.2,0.4c-0.6,0.2-1.3,0.5-2,0.8c-1.4,0.6-3.3,1.6-5.4,3.3    c-2.1,1.7-4.2,4.3-5.4,6.9c-1.3,2.6-1.8,4.7-2.1,6.9l-1,10.2l-0.8,9c-0.5,6-0.9,12-1.1,18l-0.5,14.5l-0.1,1.8v0.9v0.3v0.2    c-0.1,0.6,0,1.3-0.1,1.8c-0.1,1.1-0.4,2.1-0.7,3c-1.4,3.3-3.5,5.2-8.3,5.5c-0.2,0.6-6.7-1-11-2l-14.1-3.2l-28.2-6.4l-0.7-0.3    c-0.2-0.1-0.4-0.2-1.1-0.4c-1.1-0.4-2.3-0.7-3.9-0.9c-3-0.5-8.1,0.3-11.3,2.4c-1.7,1-2.9,2-3.9,2.8c-0.5,0.4-1,1-1.5,1.5    c-0.3,0.3-0.3,0.2-0.8,0.7l-2.4,2.3c-3.2,3-6.3,6.1-9.4,9.2c-6.2,6.2-12.2,12.6-18,19.1l-4.4,4.9l-1.1,1.2l-0.5,0.6l-0.1,0.2    c0.1-0.1,0,0,0,0l-0.2,0.1c-0.4,0.3-0.8,0.8-1.2,1.1c-1.5,1.3-2.8,1.8-3.5,1.9s-0.9,0.1-1.6-0.2c-0.3-0.2-0.7-0.3-1.2-0.6    c-0.4-0.1-1.4-1.1-1.4-1.1c-0.1-0.1-0.1,0-0.3-0.2l-1.1-1.2l-0.8-0.9l-0.1-0.2l-0.5-0.6l-4.2-5.1l-8.4-10.2l-16.8-20.3l-2.1-2.5    c-0.3-0.3-2.2-3.1-5.6-5.6c-1.7-1.3-4.1-2.7-6.7-3.7c-2.7-1-5.5-1.4-7.9-1.4c-2.5,0-4.1,0.2-5.9,0.6l-1.8,0.4l-1.2,0.3l-12.4,3.3    c-8.6,2.1-17.3,4.3-25.9,6.4c-3.1,0.8-7.2,5.6-7.8,8.4c-1.5,5.6,3.5,8.3,10.2,9.6c10.9,2.2,22.1,3.1,33.9,2.7    c2.1-0.1,4.2-0.3,6.3-0.5c0.3,0.4,0.6,0.9,0.8,1.3l2.5,3.8c1.7,2.5,3.4,5,5.2,7.4l12.8,17.6l6.4,8.8l1.6,2.2l2.2,2.8    c0.4,0.5,1.7,1.9,2.7,2.9c1.1,1.1,2.2,2.1,3.3,3c4.2,3.5,9.5,6.6,15.6,8.2c6.1,1.7,12.8,1.8,19,0.4s11.8-4.3,16.3-7.8    c2.3-1.7,4.4-3.6,6.2-5.6c0.9-0.9,2-2.1,2.6-2.9l1.8-2.1c8.9-10.4,17.7-20.8,26.3-31.5l0.7,0.2c7.1,1.7,14.2,3.3,21.4,4.8    l20.7,6.7c3.8,0.9,2.5,0.8,6,1.4c1.4,0.2,2.7,0.4,4.1,0.5l3.6,0.1c4.8,0,9.9-0.7,14.8-2.4c9.9-3.3,18.7-10.9,23.5-19.9    c2.4-4.5,4.2-9.3,5-13.9c0.5-2.4,0.6-4.5,0.9-7l0.3-4.3l0.9-17.2l0.6-17.2l0.1-6.9l3.1-1.4c5.2-2.4,10.4-4.9,15.5-7.4    c11.7-5.8,20.1-13.9,16-22.1C444.611,328.072,433.811,325.672,421.011,329.572z M190.311,432.772c-0.4,0.1-1.4,0.1-2.3-0.1    c0.1,0,0.3,0,0.4,0C189.911,432.472,191.511,432.372,190.311,432.772z M303.811,439.572l-0.4-0.1L303.811,439.572    C303.911,439.572,303.911,439.572,303.811,439.572z M406.711,369.672c-0.3,0.1-0.4,0.1,0.5-0.3l0.6-0.3    C407.211,369.472,406.811,369.572,406.711,369.672z" fill="#383838"/>
	</g>
</g>
<g>
</g>
<g>
</g>
<g>
</g>
<g>
</g>
<g>
</g>
<g>
</g>
<g>
</g>
<g>
</g>
<g>
</g>
<g>
</g>
<g>
</g>
<g>
</g>
<g>
</g>
<g>
</g>
<g>
</g>
</svg>
