<?xml version="1.0" encoding="iso-8859-1"?>
<!-- Generator: Adobe Illustrator 19.0.0, SVG Export Plug-In . SVG Version: 6.00 Build 0)  -->
<svg xmlns="http://www.w3.org/2000/svg" xmlns:xlink="http://www.w3.org/1999/xlink" version="1.1" id="Capa_1" x="0px" y="0px" viewBox="0 0 486.192 486.192" style="enable-background:new 0 0 486.192 486.192;" xml:space="preserve" width="512px" height="512px">
<g>
	<g>
		<path d="M370.124,156.175c-0.4,6.1-1.3,12.2-2.6,18.2c-2.6,12-7.1,23.5-13.1,34.3c-6.1,10.6-13.8,20.7-22.5,28.8    c-1.1,1-1.8,1.9-3.3,3.1l-4.1,3.5l-4.3,3.7c-1.7,1.4-3.2,3-4.8,4.5c-6.2,6.2-11.6,13.1-16.2,20.7c-4.5,7.6-8.1,15.7-10.5,24.2    c-1.2,4.3-2.2,8.6-2.8,13c-0.3,2.1-0.6,4.5-0.8,7c-0.3,2.7-0.2,4.1-0.3,6l-0.1,43.3c-0.2,28.5-0.4,56.9-0.5,85.3    c-0.1,10.1,3.4,26,5.8,31c4.9,9.9,9-3,12.1-22.2c5.2-31.7,8.9-66.9,11.4-103.9c0.6-9.2,1.1-18.6,1.7-28.1l0.2-3.6l0.3-3.2    c0.2-2.5,0.5-3.8,0.9-5.9c0.7-4,1.9-8,3.3-11.8c2.8-7.7,7-14.9,12.2-21.2c2.6-3.2,5.4-6.2,8.6-8.8l11-9.1c5.1-4.6,9.7-9.1,14-13.9    c2.1-2.4,4.3-4.8,6.2-7.4c2-2.5,4-5.1,5.8-7.8c7.4-10.6,13.5-22.2,18.2-34.4c4.6-12.2,7.7-25,9.2-38c0.7-6.6,1.2-12.8,1-19.8    c-0.1-3.1,0-5.6-0.3-9.1l-1-10.3c-3.4-26-13.4-51.3-28.8-72.7c-7.7-10.8-16.7-20.5-26.8-29.1c-5.1-4.2-10.3-8.3-15.9-11.9    c-2.7-1.9-5.6-3.6-8.5-5.2l-4.3-2.5l-0.3-0.2l-0.1-0.1l-1.2-0.6l-0.6-0.3c-1.2-0.5-2.4-0.9-3.7-1.2c-1-0.2-1.9-0.3-2.8-0.4    c-3.7-0.3-7.5,0.3-10.8,1.7c-6.6,2.7-11.9,8.8-13.5,16.2c-0.2,0.9-0.3,1.8-0.4,2.7l-0.1,1.3v0.8v1.1v2.2l-0.1,8.9l-0.2,17.7    l-0.3,35.5l-0.1,17.7v3.5c-0.1,1.4-0.1,3.2-0.3,4.2c-0.2,0.5-0.2,1-0.3,1.6l-0.7,2.4c-2.1,6.4-6.9,12.1-13,15.2    c-3,1.6-6.3,2.5-9.7,2.8l-1.3,0.1c-0.4,0-0.8,0.1-1.7,0.1h-4.4h-8.9l-17.8,0.1h-4.4h-0.9h-0.4l-2.2-0.1c-1.9,0-1.8-0.3-2.5-0.3    c-0.4,0-1.4-0.3-2.2-0.5c-6.6-1.7-12.7-6.3-16.3-12.3c-1.8-3-3-6.3-3.4-9.8c-0.1-0.9-0.1-1.8-0.2-2.6c-0.1-1-0.1-2.8-0.1-4.2    l-0.1-8.9l0.6-35.2l0.3-17.6l0.1-8.8l0.1-4.4v-2.2v-1.1v-0.6l-0.1-1.9l-0.1-0.9c-0.1-1-0.3-2.1-0.5-3.1c-0.5-1.9-0.9-3-1.6-4.5    c-1.3-2.8-3.1-5.2-5.3-7.2c-4.3-4-10-6.3-16.2-6.3c-3.1,0-6.2,0.7-9,1.8c-0.7,0.3-1.3,0.6-2,1l-0.5,0.3l-1,0.6l-0.2,0.1l-0.7,0.5    l-3,1.9c-3.7,2.1-8.6,5.8-13,9c-8.3,6.5-16,13.8-23,21.6c-6.9,8-13.1,16.6-18.5,25.7c-5.3,9.2-9.6,18.9-13.2,28.9    c-3.4,10-5.8,20.4-7.3,30.9c-0.5,5.3-1.2,10.5-1.3,15.8l-0.1,4v1v0.5v1v1.7c0.1,2.4,0.1,4.5,0.2,7.1l0.7,8.4l1.1,7.9    c0.9,5.2,1.9,10.4,3.3,15.6c2.7,10.3,6.4,20.3,11,29.8c9.2,19.1,22.2,36.3,38,50.3l5.1,4.6c1.3,1.3,2.1,2.1,3.4,3.5    c2.4,2.6,4.6,5.5,6.5,8.5c3.9,6,6.7,12.5,8.4,19.4c0.8,3.4,1.3,6.9,1.6,10.4l0.1,2.7l0.1,3.5l0.1,7l0.5,27.8    c0.4,18.5,0.9,37.1,1.3,55.6c1.2,42.1,5.8,77.2,14.8,74c8.3-2.9,14.4-32.7,15.3-76c0.4-19.4,0.9-38.9,1.3-58.4l0.6-29.2    c0.1-4.4,0.2-11-0.5-16.6c-0.6-5.8-1.8-11.5-3.6-17.1c-3.4-11.1-8.9-21.6-16-30.8c-1.8-2.3-3.6-4.5-5.6-6.7l-3.3-3.4l-2.8-2.6    l-5.2-4.8c-1.6-1.5-3-3.1-4.6-4.6c-11.8-12.6-21.1-27.6-27.2-43.7c-2.5-6.5-4.4-13.2-5.7-20c-0.8-3.4-1.2-6.8-1.7-10.3    c-0.2-3.4-0.7-6.1-0.8-10.3c-0.5-14,1.1-27.9,5.1-41.3c3.9-13.4,10-26.1,18-37.5c3.9-5.8,8.5-11.1,13.3-16.2    c2.6-2.4,4.9-5,7.7-7.2l2.2-1.9l0.1,4.6l0.6,47l0.2,11.9c0.2,5.1,0.8,10.3,2.4,15.2c2.8,9.9,8.5,18.8,15.7,25.8    c7.4,7,16.5,12.1,26.4,14.5c2.3,0.7,5.2,1.1,8,1.4l1,0.1h0.7l1.5,0.1l1.5,0.1h0.7h1.4l11.8-0.1l21.1,1l2.6,0.1    c0.9,0,1.7,0.1,2.9,0.1c2.3-0.1,4.6,0,6.9-0.3c4.6-0.4,9.2-1.5,13.6-3.1c17.7-6.2,32.3-21.3,37.5-40.1c0.3-1.2,0.7-2.3,1-3.6    l0.7-4.1l0.3-2c0.1-0.7,0.1-1,0.1-1.5l0.2-2.6l0.4-11.4l0.6-21.2c0.2-10,0.4-20,0.6-30c7.6,6.2,14.5,13.2,20.5,21    c7.5,9.7,13.7,20.5,18.1,31.9c2.3,5.7,4,11.6,5.4,17.6c0.7,3,1.1,6,1.7,9c0.4,2.9,0.6,5.7,1,8.5c0.2,3.3,0.3,7,0.4,10.5l-0.1,4    C370.324,153.175,370.324,154.675,370.124,156.175z" fill="#383838"/>
		<path d="M253.524,333.275c-4.9-1.1-9,0.3-12.1,2.4c-10.3,6.9-14.8,15.4-16,23.9c-2.9,20.6-7.3,41.2-4,62c-0.4,2.6-0.8,5.1-1.1,7.7    c-1.7,16.3-2.2,32.5,1.9,48.7c1.2,4.6,5.8,8.4,14.8,8.1c8.3-0.3,14.4-3.6,15.3-8.3c1.7-8.5,3.6-17,3.4-25.6    c-0.4-13.7-2.4-27.4-3.7-41.1c11.5-24.5,4.9-49.6,7.3-74.5C259.524,335.475,256.024,333.775,253.524,333.275z" fill="#383838"/>
	</g>
</g>
<g>
</g>
<g>
</g>
<g>
</g>
<g>
</g>
<g>
</g>
<g>
</g>
<g>
</g>
<g>
</g>
<g>
</g>
<g>
</g>
<g>
</g>
<g>
</g>
<g>
</g>
<g>
</g>
<g>
</g>
</svg>
