<?xml version="1.0" encoding="iso-8859-1"?>
<!-- Generator: Adobe Illustrator 19.0.0, SVG Export Plug-In . SVG Version: 6.00 Build 0)  -->
<svg xmlns="http://www.w3.org/2000/svg" xmlns:xlink="http://www.w3.org/1999/xlink" version="1.1" id="Capa_1" x="0px" y="0px" viewBox="0 0 491.127 491.127" style="enable-background:new 0 0 491.127 491.127;" xml:space="preserve" width="512px" height="512px">
<g>
	<g>
		<path d="M432.427,93.914c0.8,0,0.9,0.1,1.1,0.2s0.4,0.1,0.6,0.1c0.3,0,1,0.2,1.7,0.4c0.7,0.2,1.4,0.3,2,0.6c2.6,0.9,5.2,2.2,7.4,4    c4.4,3.5,7.9,8.4,9.2,13.8c0.5,1.3,0.6,2.8,0.8,4.2l0.2,2.2v3.8l0.1,15l0.3,30.1c0.5,40.1,1.2,80.2,2.3,120.2    c1.2,45.5,5.8,83.3,14.8,79.9c8.3-3.1,14.4-35.4,15.3-82.1c0.8-42,1.6-84.1,2.4-126.3l0.4-31.6l0.1-7.9c0-1.1-0.1-3.2-0.1-4.9    c0-1.8-0.2-3.6-0.5-5.3c-1-7.1-3.2-14-6.5-20.4c-6.7-12.7-18-22.8-31.3-28.3c-1.7-0.6-3.4-1.3-5.1-1.8l-5.2-1.4    c-1.9-0.4-4-0.7-6-0.9l-1.5-0.2l-1-0.1l-2-0.1l-2.8-0.1h-2h-3.9h-7.9c-67.7,0.2-135.4,0.8-203.1,1.5l-101.5,1.1l-25.3,0.3    l-12.7,0.1l-6.3,0.1h-1.6l-2,0.1l-4.1,0.3c-10.9,1.3-21.4,5.5-29.9,12.3c-8.5,6.7-15.2,15.8-18.8,26.1c-1.9,4.5-3.1,9.1-3.9,14.8    l-0.3,2.9l-0.1,1.4v0.4v1v0.7l-0.2,5.7l-0.9,22.8c-0.5,15.2-1,30.4-1.6,45.7c-0.9,30.5-1.6,61.1-2.1,91.7    c-0.2,15.3-0.4,30.6-0.6,46l-0.2,23l-0.1,11.5c-0.1,1.6,0.1,4.6,0.2,7.3c0.1,2.7,0.7,5.4,1.1,8.1c4.4,21.7,20.3,40.5,41.2,48    c2.6,1,5.2,1.7,7.9,2.4c2.6,0.7,6.2,1.1,9.1,1.5l2.9,0.2l1.4,0.1h2.4h5.8h23.1c61.5-0.1,123.2-0.2,184.7-0.3c30.8,0,61.6,0,92.3,0    l46.1,0.2l11.5,0.1c5.4-0.1,11-0.6,16.3-2c10.8-2.6,20.8-8.1,28.8-15.6c5.8-5.3,11.3-14.2,13.6-22.8c0.6-2.2,1-4.3,1.3-6.3    c0.2-2,0.4-4,0.5-5.7c0.1-1.8,0-3.7-0.2-5.2c-0.1-0.8-0.2-1.5-0.2-2.1c-0.1-0.6-0.3-0.9-0.4-1.3c-2.2-5.5-4.4-4.8-6.7-0.1    c-0.5,1.1-1.4,3.1-2.1,4.8c-0.7,1.9-1.8,3.7-2.8,5.8c-2.3,4-5.1,8.4-8.9,12.4c-6.2,6.6-14.1,11.4-22.6,13.7    c-4.2,1.2-8.6,1.5-13,1.5c-4.2-0.2-9.1-0.9-13.7-1.3c-18.8-1.9-38.2-3.5-58.2-4.7c-40-2.6-81.9-4-124.2-4.6    c-50.9-0.8-101.9-1.5-152.8-2.3l-19.1-0.3l-3.9-0.3c-1-0.2-1.5-0.4-2.3-0.5l-2.9-0.8c-0.9-0.4-1.9-0.7-2.8-1.1    c-7.3-3.4-13.1-10-15.4-17.5c-0.6-1.9-0.9-3.8-1.2-5.8l-0.1-3v-4.7l0.2-19.1l0.4-38.3c0.5-51,0.9-102.1,0.9-153.2v-19.2v-9.6v-4.8    v-0.2l0.1-1.2l0.1-2.4c0-0.5,0.1-0.7,0.1-0.8l0.1-0.4c0.1-0.3,0.1-0.6,0.1-0.9l0.6-2.6l1-2.6c0.4-0.8,0.8-1.7,1.2-2.5    c1.8-3.3,4.3-6.2,7.3-8.5s6.5-3.9,10.1-4.8c1.8-0.4,3.7-0.6,5.7-0.7l9.5-0.1l38.4-0.5c25.4,0.4,50.7,0.7,76.1,1.1    c40.2,0.3,80.4,0.7,120.6,1l60.3,0.2h59.2L432.427,93.914z" fill="#383838"/>
		<path d="M427.927,136.114c-0.8-5.8-6.8-6.1-13.6-4.1c-22.5,6.3-44.4,19.9-64.4,36.3c-34.5,28.2-69.5,55.8-102.9,85.4    c-5-4.2-10-8.4-15.1-12.5l-16.6-16.3c-35.5-34-71.8-67-110.9-96.5c-11.1-8.4-22.8-12.7-28.1-5.2c-4.8,6.8-1.5,17.9,8.4,28.1    c17.9,18.4,35.9,37,55.2,53.9c15.6,13.7,31.6,27.2,47.6,40.5c-5.4,1.3-10.1,3.7-14.2,6.7c-19.4,14.2-39.9,27.4-55.3,46.2    c-2.4,1.8-4.9,3.5-7.3,5.3c-14.9,11.7-29.1,24.2-40,40.1c-3.1,4.5-3.2,10.9,3.3,17.3c5.9,5.8,12.9,7.7,17.5,4.6    c8.4-5.5,16.9-10.9,24-17.8c11.4-11.1,21.6-23.5,32.3-35.3c26-10.1,42.2-31.3,61.9-48.6c8.4,6.9,16.7,13.9,25,20.9    c1.1,1.3,2.2,2.7,3.3,4c3.7,4.4,10.1,5.4,15,2.2l3.3-2.2c13.7-9.2,26.9-19,39.8-29.4c1.6,4.5,4,8.6,6.9,12.1    c15.4,18.6,29.7,38.3,49.4,52.5c1.9,2.3,3.8,4.7,5.7,6.9c12.6,14.2,25.9,27.6,42.4,37.6c4.7,2.8,11.1,2.6,17-4.3    c5.4-6.2,6.9-13.3,3.6-17.8c-6-8.1-11.9-16.3-19.2-22.9c-11.8-10.7-24.7-20.2-37.2-30.2c-10.3-22.5-29-36.9-45.9-52.9    c35.6-30.5,69.3-63.4,105.1-93.5C426.827,145.114,428.327,139.014,427.927,136.114z" fill="#383838"/>
	</g>
</g>
<g>
</g>
<g>
</g>
<g>
</g>
<g>
</g>
<g>
</g>
<g>
</g>
<g>
</g>
<g>
</g>
<g>
</g>
<g>
</g>
<g>
</g>
<g>
</g>
<g>
</g>
<g>
</g>
<g>
</g>
</svg>
